<svg width="81" height="80" viewBox="0 0 81 80" fill="none" xmlns="http://www.w3.org/2000/svg">
<g id="ChartBar">
<path id="Vector" opacity="0.2" d="M65.5 12.5V65H48V12.5H65.5Z" fill="#CC00FF"/>
<path id="Vector_2" d="M70.5 62.5H68V12.5C68 11.837 67.7366 11.2011 67.2678 10.7322C66.7989 10.2634 66.163 10 65.5 10H48C47.337 10 46.7011 10.2634 46.2322 10.7322C45.7634 11.2011 45.5 11.837 45.5 12.5V25H30.5C29.837 25 29.2011 25.2634 28.7322 25.7322C28.2634 26.2011 28 26.837 28 27.5V40H15.5C14.837 40 14.2011 40.2634 13.7322 40.7322C13.2634 41.2011 13 41.837 13 42.5V62.5H10.5C9.83696 62.5 9.20107 62.7634 8.73223 63.2322C8.26339 63.7011 8 64.337 8 65C8 65.663 8.26339 66.2989 8.73223 66.7678C9.20107 67.2366 9.83696 67.5 10.5 67.5H70.5C71.163 67.5 71.7989 67.2366 72.2678 66.7678C72.7366 66.2989 73 65.663 73 65C73 64.337 72.7366 63.7011 72.2678 63.2322C71.7989 62.7634 71.163 62.5 70.5 62.5ZM50.5 15H63V62.5H50.5V15ZM33 30H45.5V62.5H33V30ZM18 45H28V62.5H18V45Z" fill="#1D1F3D"/>
</g>
</svg>
