<svg width="81" height="80" viewBox="0 0 81 80" fill="none" xmlns="http://www.w3.org/2000/svg">
<g id="Globe">
<path id="Vector" opacity="0.2" d="M70.5 40C70.5 45.9334 68.7405 51.7336 65.4441 56.6671C62.1477 61.6006 57.4623 65.4458 51.9805 67.7164C46.4987 69.987 40.4667 70.5811 34.6473 69.4236C28.8279 68.266 23.4824 65.4088 19.2868 61.2132C15.0912 57.0176 12.234 51.6721 11.0765 45.8527C9.9189 40.0333 10.513 34.0013 12.7836 28.5195C15.0543 23.0377 18.8994 18.3524 23.8329 15.0559C28.7664 11.7595 34.5666 10 40.5 10C48.4565 10 56.0871 13.1607 61.7132 18.7868C67.3393 24.4129 70.5 32.0435 70.5 40Z" fill="#CC00FF"/>
<path id="Vector_2" d="M40.5 7.5C34.0721 7.5 27.7886 9.40609 22.444 12.9772C17.0994 16.5484 12.9338 21.6242 10.4739 27.5628C8.01408 33.5014 7.37047 40.0361 8.62449 46.3404C9.87851 52.6448 12.9738 58.4358 17.519 62.981C22.0643 67.5262 27.8552 70.6215 34.1596 71.8755C40.464 73.1295 46.9986 72.4859 52.9372 70.0261C58.8758 67.5662 63.9516 63.4006 67.5228 58.056C71.0939 52.7114 73 46.4279 73 40C72.9909 31.3833 69.5639 23.122 63.4709 17.0291C57.378 10.9361 49.1168 7.5091 40.5 7.5ZM32.2594 52.5H48.7406C47.0625 58.2313 44.25 63.3969 40.5 67.4656C36.75 63.3969 33.9375 58.2313 32.2594 52.5ZM31.125 47.5C30.2959 42.5344 30.2959 37.4656 31.125 32.5H49.875C50.7042 37.4656 50.7042 42.5344 49.875 47.5H31.125ZM13 40C12.9978 37.4639 13.3481 34.9397 14.0406 32.5H26.0594C25.3136 37.4722 25.3136 42.5278 26.0594 47.5H14.0406C13.3481 45.0603 12.9978 42.5361 13 40ZM48.7406 27.5H32.2594C33.9375 21.7688 36.75 16.6031 40.5 12.5344C44.25 16.6031 47.0625 21.7688 48.7406 27.5ZM54.9406 32.5H66.9594C68.3469 37.4037 68.3469 42.5963 66.9594 47.5H54.9406C55.6865 42.5278 55.6865 37.4722 54.9406 32.5ZM64.9906 27.5H53.9188C52.6429 22.4797 50.5003 17.7208 47.5875 13.4375C51.3089 14.4376 54.7798 16.2054 57.7771 18.6273C60.7743 21.0492 63.2315 24.0715 64.9906 27.5ZM33.4125 13.4375C30.4997 17.7208 28.3571 22.4797 27.0813 27.5H16.0094C17.7685 24.0715 20.2257 21.0492 23.223 18.6273C26.2202 16.2054 29.6911 14.4376 33.4125 13.4375ZM16.0094 52.5H27.0813C28.3571 57.5203 30.4997 62.2792 33.4125 66.5625C29.6911 65.5624 26.2202 63.7946 23.223 61.3727C20.2257 58.9508 17.7685 55.9285 16.0094 52.5ZM47.5875 66.5625C50.5003 62.2792 52.6429 57.5203 53.9188 52.5H64.9906C63.2315 55.9285 60.7743 58.9508 57.7771 61.3727C54.7798 63.7946 51.3089 65.5624 47.5875 66.5625Z" fill="#1D1F3D"/>
</g>
</svg>
