<svg width="80" height="80" viewBox="0 0 80 80" fill="none" xmlns="http://www.w3.org/2000/svg">
<g id="Handshake">
<path id="Vector" opacity="0.2" d="M62.5 47.5L50 60L30 55L12.5 42.5L22.5 22.5L40 17.5L57.5 22.5H45L30.7312 36.3406C30.466 36.6057 30.2638 36.9271 30.1396 37.281C30.0154 37.6349 29.9724 38.0122 30.0139 38.3849C30.0553 38.7577 30.18 39.1163 30.3789 39.4343C30.5777 39.7523 30.8455 40.0215 31.1625 40.2219C36.6344 43.7188 44.0625 43.4781 50 37.5L62.5 47.5Z" fill="#CC00FF"/>
<path id="Vector_2" d="M37.425 68.1062C37.2899 68.6471 36.9778 69.1272 36.5384 69.4703C36.099 69.8135 35.5575 69.9999 35 70C34.7894 70.001 34.5795 69.9758 34.375 69.925L24.375 67.425C24.0966 67.3551 23.8324 67.2377 23.5938 67.0781L16.0938 62.0781C15.5422 61.7101 15.1594 61.1381 15.0296 60.4879C14.8998 59.8376 15.0336 59.1625 15.4016 58.6109C15.7696 58.0593 16.3416 57.6766 16.9918 57.5467C17.6421 57.4169 18.3172 57.5507 18.8688 57.9187L26.0063 62.6781L35.5875 65.075C35.9077 65.1526 36.2093 65.2927 36.4751 65.4872C36.7409 65.6818 36.9656 65.927 37.1364 66.2086C37.3071 66.4903 37.4206 66.803 37.4701 67.1286C37.5196 67.4543 37.5043 67.7865 37.425 68.1062ZM78.8907 37.9625C78.6855 38.5855 78.359 39.1618 77.9299 39.6579C77.5008 40.1541 76.9777 40.5603 76.3907 40.8531L68.9907 44.5531L51.7782 61.7687C51.4727 62.0739 51.0934 62.2948 50.6771 62.4098C50.2609 62.5248 49.822 62.53 49.4032 62.425L29.4032 57.425C29.099 57.3486 28.8118 57.2161 28.5563 57.0344L11.2063 44.6469L3.61879 40.8531C2.43297 40.2603 1.53111 39.2208 1.11152 37.9633C0.691935 36.7057 0.788971 35.3329 1.38129 34.1469L9.14692 18.6187C9.73971 17.4329 10.7792 16.531 12.0368 16.1115C13.2944 15.6919 14.6671 15.7889 15.8532 16.3812L22.7469 19.8187L39.3094 15.0875C39.7587 14.959 40.2351 14.959 40.6844 15.0875L57.2469 19.8187L64.1407 16.3812C65.3267 15.7889 66.6995 15.6919 67.9571 16.1115C69.2147 16.531 70.2541 17.4329 70.8469 18.6187L78.6125 34.1469C78.9087 34.7329 79.0858 35.3719 79.1336 36.0268C79.1813 36.6818 79.0987 37.3397 78.8907 37.9625ZM64.4594 42.0062L55.9563 25H46.0126L32.5 38.125C36.4563 40.6531 42.6594 41.35 48.225 35.7406C48.6597 35.3025 49.2411 35.0406 49.8573 35.0054C50.4734 34.9702 51.0808 35.1642 51.5625 35.55L62.3157 44.1656L64.4594 42.0062ZM5.85317 36.3812L11.3813 39.1469L19.1469 23.6187L13.6188 20.8531L5.85317 36.3812ZM58.75 47.7062L50.0907 40.7719C43.9844 45.7719 36.2313 46.4312 29.8063 42.3344C29.1743 41.9323 28.6407 41.3934 28.2449 40.7575C27.8491 40.1216 27.6013 39.4048 27.5197 38.6602C27.4381 37.9157 27.5248 37.1623 27.7735 36.4557C28.0221 35.7491 28.4264 35.1075 28.9563 34.5781C28.9638 34.569 28.9722 34.5606 28.9813 34.5531L43 20.9562L40 20.1L24.2438 24.6031L15.6907 41.7062L31.0657 52.6906L49.2344 57.2312L58.75 47.7062ZM74.1376 36.3812L66.3813 20.8531L60.8532 23.6187L68.6188 39.1469L74.1376 36.3812Z" fill="#1D1F3D"/>
</g>
</svg>
