<svg width="81" height="80" viewBox="0 0 81 80" fill="none" xmlns="http://www.w3.org/2000/svg">
<g id="Lightbulb">
<path id="Vector" opacity="0.2" d="M65.5 32.5C65.5033 36.288 64.6443 40.0271 62.9881 43.4338C61.3318 46.8405 58.9218 49.8255 55.9406 52.1625C55.0302 52.8681 54.2923 53.7717 53.7828 54.8047C53.2733 55.8377 53.0056 56.9732 53 58.125V60C53 60.6631 52.7366 61.2989 52.2678 61.7678C51.7989 62.2366 51.163 62.5 50.5 62.5H30.5C29.8369 62.5 29.2011 62.2366 28.7322 61.7678C28.2634 61.2989 28 60.6631 28 60V58.125C27.9988 56.9795 27.7364 55.8494 27.2328 54.8205C26.7292 53.7916 25.9976 52.8912 25.0937 52.1875C22.1218 49.8659 19.7146 46.9009 18.0529 43.5154C16.3913 40.1299 15.5185 36.4119 15.5 32.6406C15.425 19.0906 26.35 7.81251 39.8969 7.50001C43.2303 7.41957 46.5462 8.00678 49.6493 9.22708C52.7524 10.4474 55.58 12.2761 57.9657 14.6056C60.3514 16.9352 62.2471 19.7184 63.541 22.7915C64.8349 25.8647 65.501 29.1656 65.5 32.5Z" fill="#CC00FF"/>
<path id="Vector_2" d="M55.5 72.5C55.5 73.163 55.2366 73.7989 54.7678 74.2678C54.2989 74.7366 53.6631 75 53 75H28C27.337 75 26.7011 74.7366 26.2322 74.2678C25.7634 73.7989 25.5 73.163 25.5 72.5C25.5 71.8369 25.7634 71.2011 26.2322 70.7322C26.7011 70.2634 27.337 70 28 70H53C53.6631 70 54.2989 70.2634 54.7678 70.7322C55.2366 71.2011 55.5 71.8369 55.5 72.5ZM68 32.5C68.0108 36.6676 67.0693 40.7826 65.2474 44.531C63.4255 48.2793 60.7713 51.5618 57.4875 54.1281C56.8735 54.5988 56.3752 55.2036 56.0307 55.8963C55.6863 56.589 55.5047 57.3513 55.5 58.125V60C55.5 61.3261 54.9732 62.5978 54.0355 63.5355C53.0979 64.4732 51.8261 65 50.5 65H30.5C29.1739 65 27.9022 64.4732 26.9645 63.5355C26.0268 62.5978 25.5 61.3261 25.5 60V58.125C25.4995 57.3606 25.3237 56.6065 24.9862 55.9207C24.6487 55.2348 24.1585 54.6355 23.5531 54.1687C20.2775 51.6176 17.6252 48.3548 15.7968 44.6272C13.9685 40.8996 13.0121 36.8049 13 32.6531C12.9188 17.7594 24.9563 5.35624 39.8375 4.99999C43.5042 4.91163 47.1516 5.55765 50.5649 6.90004C53.9782 8.24243 57.0885 10.2541 59.7127 12.8165C62.3368 15.379 64.4219 18.4405 65.8452 21.8209C67.2684 25.2013 68.0011 28.8322 68 32.5ZM63 32.5C63.0009 29.4989 62.4014 26.528 61.2368 23.7621C60.0722 20.9963 58.3661 18.4913 56.2188 16.3947C54.0716 14.2981 51.5266 12.6523 48.7337 11.5541C45.9408 10.4559 42.9564 9.92746 39.9563 9.99999C27.7688 10.2875 17.9344 20.4344 18 32.6219C18.0114 36.0174 18.795 39.366 20.2914 42.414C21.7879 45.4621 23.958 48.1299 26.6375 50.2156C27.842 51.152 28.8163 52.3516 29.4858 53.7225C30.1553 55.0934 30.5022 56.5993 30.5 58.125V60H50.5V58.125C50.5035 56.595 50.8563 55.086 51.5317 53.7131C52.207 52.3402 53.187 51.1397 54.3969 50.2031C57.0847 48.1026 59.257 45.4157 60.748 42.3476C62.239 39.2794 63.0093 35.9112 63 32.5ZM57.9656 29.5812C57.3174 25.9603 55.5753 22.6249 52.9739 20.024C50.3725 17.4232 47.0367 15.6818 43.4156 15.0344C43.0918 14.9798 42.7605 14.9895 42.4404 15.063C42.1204 15.1365 41.818 15.2723 41.5504 15.4626C41.2829 15.653 41.0555 15.8942 40.8811 16.1724C40.7068 16.4507 40.589 16.7606 40.5344 17.0844C40.4798 17.4082 40.4895 17.7395 40.563 18.0596C40.6365 18.3796 40.7723 18.682 40.9627 18.9496C41.153 19.2171 41.3942 19.4445 41.6725 19.6189C41.9507 19.7932 42.2606 19.911 42.5844 19.9656C47.7625 20.8375 52.1563 25.2312 53.0344 30.4187C53.1333 31.001 53.4352 31.5294 53.8865 31.9104C54.3378 32.2913 54.9094 32.5002 55.5 32.5C55.6413 32.4991 55.7823 32.4876 55.9219 32.4656C56.5754 32.3541 57.1578 31.9875 57.541 31.4466C57.9243 30.9057 58.077 30.2347 57.9656 29.5812Z" fill="#1D1F3D"/>
</g>
</svg>
