<svg width="80" height="80" viewBox="0 0 80 80" fill="none" xmlns="http://www.w3.org/2000/svg">
<g id="MagnifyingGlass">
<path id="Vector" opacity="0.2" d="M60 35C60 39.9445 58.5338 44.778 55.7867 48.8893C53.0397 53.0005 49.1353 56.2048 44.5671 58.097C39.9989 59.9892 34.9723 60.4843 30.1228 59.5196C25.2732 58.555 20.8187 56.174 17.3223 52.6777C13.826 49.1814 11.445 44.7268 10.4804 39.8773C9.51575 35.0277 10.0108 30.0011 11.903 25.4329C13.7952 20.8648 16.9995 16.9603 21.1108 14.2133C25.222 11.4662 30.0555 10 35 10C38.2831 10 41.534 10.6466 44.5671 11.903C47.6002 13.1594 50.3562 15.0009 52.6777 17.3223C54.9991 19.6438 56.8406 22.3998 58.097 25.4329C59.3534 28.4661 60 31.717 60 35Z" fill="#CC00FF"/>
<path id="Vector_2" d="M71.7687 68.2312L56.125 52.5875C60.6681 47.1388 62.9356 40.1484 62.4558 33.0704C61.9761 25.9924 58.786 19.3719 53.5492 14.5862C48.3124 9.8004 41.4321 7.21786 34.3396 7.3758C27.2472 7.53374 20.4887 10.42 15.4701 15.4341C10.4515 20.4483 7.5593 27.2042 7.39509 34.2965C7.23088 41.3888 9.80734 48.2714 14.5885 53.5124C19.3696 58.7535 25.9873 61.9494 33.0648 62.4354C40.1424 62.9215 47.1348 60.6601 52.5875 56.1218L68.2312 71.7687C68.4635 72.001 68.7393 72.1852 69.0428 72.311C69.3462 72.4367 69.6715 72.5014 70 72.5014C70.3285 72.5014 70.6538 72.4367 70.9572 72.311C71.2607 72.1852 71.5365 72.001 71.7687 71.7687C72.001 71.5364 72.1853 71.2607 72.311 70.9572C72.4367 70.6537 72.5014 70.3285 72.5014 70C72.5014 69.6715 72.4367 69.3462 72.311 69.0427C72.1853 68.7393 72.001 68.4635 71.7687 68.2312ZM12.5 35C12.5 30.5499 13.8196 26.1997 16.2919 22.4996C18.7643 18.7995 22.2783 15.9157 26.3896 14.2127C30.501 12.5097 35.025 12.0641 39.3895 12.9323C43.7541 13.8005 47.7632 15.9434 50.9099 19.0901C54.0566 22.2368 56.1995 26.2459 57.0677 30.6104C57.9358 34.975 57.4903 39.499 55.7873 43.6104C54.0843 47.7217 51.2004 51.2357 47.5003 53.708C43.8002 56.1804 39.4501 57.5 35 57.5C29.0347 57.4934 23.3155 55.1207 19.0974 50.9026C14.8793 46.6844 12.5066 40.9653 12.5 35Z" fill="#343330"/>
</g>
</svg>
