<svg width="20" height="21" viewBox="0 0 20 21" fill="none" xmlns="http://www.w3.org/2000/svg">
<g id="SealCheck">
<path id="Vector" d="M17.6453 8.53281C17.3508 8.225 17.0461 7.90781 16.9312 7.62891C16.825 7.37344 16.8187 6.95 16.8125 6.53984C16.8008 5.77734 16.7883 4.91328 16.1875 4.3125C15.5867 3.71172 14.7227 3.69922 13.9602 3.6875C13.55 3.68125 13.1266 3.675 12.8711 3.56875C12.593 3.45391 12.275 3.14922 11.9672 2.85469C11.4281 2.33672 10.8156 1.75 10 1.75C9.18437 1.75 8.57266 2.33672 8.03281 2.85469C7.725 3.14922 7.40781 3.45391 7.12891 3.56875C6.875 3.675 6.45 3.68125 6.03984 3.6875C5.27734 3.69922 4.41328 3.71172 3.8125 4.3125C3.21172 4.91328 3.20312 5.77734 3.1875 6.53984C3.18125 6.95 3.175 7.37344 3.06875 7.62891C2.95391 7.90703 2.64922 8.225 2.35469 8.53281C1.83672 9.07188 1.25 9.68437 1.25 10.5C1.25 11.3156 1.83672 11.9273 2.35469 12.4672C2.64922 12.775 2.95391 13.0922 3.06875 13.3711C3.175 13.6266 3.18125 14.05 3.1875 14.4602C3.19922 15.2227 3.21172 16.0867 3.8125 16.6875C4.41328 17.2883 5.27734 17.3008 6.03984 17.3125C6.45 17.3187 6.87344 17.325 7.12891 17.4312C7.40703 17.5461 7.725 17.8508 8.03281 18.1453C8.57188 18.6633 9.18437 19.25 10 19.25C10.8156 19.25 11.4273 18.6633 11.9672 18.1453C12.275 17.8508 12.5922 17.5461 12.8711 17.4312C13.1266 17.325 13.55 17.3187 13.9602 17.3125C14.7227 17.3008 15.5867 17.2883 16.1875 16.6875C16.7883 16.0867 16.8008 15.2227 16.8125 14.4602C16.8187 14.05 16.825 13.6266 16.9312 13.3711C17.0461 13.093 17.3508 12.775 17.6453 12.4672C18.1633 11.9281 18.75 11.3156 18.75 10.5C18.75 9.68437 18.1633 9.07266 17.6453 8.53281ZM13.5672 9.06719L9.19219 13.4422C9.13414 13.5003 9.06521 13.5464 8.98934 13.5779C8.91346 13.6093 8.83213 13.6255 8.75 13.6255C8.66787 13.6255 8.58654 13.6093 8.51066 13.5779C8.43479 13.5464 8.36586 13.5003 8.30781 13.4422L6.43281 11.5672C6.31554 11.4499 6.24965 11.2909 6.24965 11.125C6.24965 10.9591 6.31554 10.8001 6.43281 10.6828C6.55009 10.5655 6.70915 10.4997 6.875 10.4997C7.04085 10.4997 7.19991 10.5655 7.31719 10.6828L8.75 12.1164L12.6828 8.18281C12.7409 8.12474 12.8098 8.07868 12.8857 8.04725C12.9616 8.01583 13.0429 7.99965 13.125 7.99965C13.2071 7.99965 13.2884 8.01583 13.3643 8.04725C13.4402 8.07868 13.5091 8.12474 13.5672 8.18281C13.6253 8.24088 13.6713 8.30982 13.7027 8.38569C13.7342 8.46156 13.7503 8.54288 13.7503 8.625C13.7503 8.70712 13.7342 8.78844 13.7027 8.86431C13.6713 8.94018 13.6253 9.00912 13.5672 9.06719Z" fill="#B519FF"/>
</g>
</svg>
