<svg xmlns="http://www.w3.org/2000/svg"  viewBox="0 0 1440 1025" fill="none">
  <path d="M720 471.68H0M720 471.68V1024M720 471.68H1440M720 471.68V-81M0 471.68V1024H720M0 471.68V-81H720M720 1024H1440V471.68M671.6 472.294V1023.39M0.13667 508.808H718.537M575.6 472.294L575.6 1023.39M0.34292 582.451H718.743M479.6 472.294V1023.39M0.54292 656.094H718.943M383.6 472.294L383.6 1023.39M0.74917 729.736H719.149M287.6 472.294L287.6 1023.39M0.95542 803.379H719.355M191.6 472.294L191.6 1023.39M1.15542 877.022H719.555M95.6 472.294L95.6 1023.39M1.36167 950.664H719.762M623.6 472.294L623.6 1023.39M0.23667 545.63H718.637M527.6 472.294V1023.39M0.44292 619.272H718.843M431.6 472.294L431.6 1023.39M0.64917 692.915H719.049M335.6 472.294L335.6 1023.39M0.84917 766.558H719.249M239.6 472.294L239.6 1023.39M1.05542 840.2H719.456M143.6 472.294L143.6 1023.39M1.26167 913.843H719.662M47.6 472.294L47.5999 1023.39M1.46167 987.486H719.862M1440 471.68V-81H720M1391.6 472.294L1391.6 1023.39M720.137 508.808H1438.54M1295.6 472.294V1023.39M720.343 582.451H1438.74M1199.6 472.294L1199.6 1023.39M720.543 656.094H1438.94M1103.6 472.294V1023.39M720.749 729.736H1439.15M1007.6 472.294V1023.39M720.955 803.379H1439.36M911.6 472.294L911.6 1023.39M721.155 877.022H1439.56M815.6 472.294L815.6 1023.39M721.362 950.664H1439.76M1343.6 472.294V1023.39M720.237 545.63H1438.64M1247.6 472.294L1247.6 1023.39M720.443 619.272H1438.84M1151.6 472.294V1023.39M720.649 692.915H1439.05M1055.6 472.294V1023.39M720.849 766.558H1439.25M959.6 472.294V1023.39M721.055 840.2H1439.46M863.6 472.294L863.6 1023.39M721.262 913.843H1439.66M767.6 472.294L767.6 1023.39M721.462 987.486H1439.86M671.6 -80.3859V471.066M0.13667 -43.8476H718.537M575.6 -80.3859L575.6 471.066M0.34292 29.8431H718.743M479.6 -80.3859V471.066M0.54292 103.534H718.943M383.6 -80.3859L383.6 471.066M0.74917 177.224H719.149M287.6 -80.3859L287.6 471.066M0.95542 250.915H719.355M191.6 -80.3859L191.6 471.066M1.15542 324.606H719.555M95.6 -80.3859L95.6 471.066M1.36167 398.297H719.762M623.6 -80.3859L623.6 471.066M0.23667 -7.00229H718.637M527.6 -80.3859V471.066M0.44292 66.6884H718.843M431.6 -80.3859L431.6 471.066M0.64917 140.379H719.049M335.6 -80.3859L335.6 471.066M0.84917 214.07H719.249M239.6 -80.3859L239.6 471.066M1.05542 287.76H719.456M143.6 -80.3859L143.6 471.066M1.26167 361.451H719.662M47.6 -80.3859L47.5999 471.066M1.46167 435.142H719.862M1391.6 -80.3859L1391.6 471.066M720.137 -43.8476H1438.54M1295.6 -80.3859V471.066M720.343 29.8431H1438.74M1199.6 -80.3859L1199.6 471.066M720.543 103.534H1438.94M1103.6 -80.3859V471.066M720.749 177.224H1439.15M1007.6 -80.3859V471.066M720.955 250.915H1439.36M911.6 -80.3859L911.6 471.066M721.155 324.606H1439.56M815.6 -80.3859L815.6 471.066M721.362 398.297H1439.76M1343.6 -80.3859V471.066M720.237 -7.00229H1438.64M1247.6 -80.3859L1247.6 471.066M720.443 66.6884H1438.84M1151.6 -80.3859V471.066M720.649 140.379H1439.05M1055.6 -80.3859V471.066M720.849 214.07H1439.25M959.6 -80.3859V471.066M721.055 287.76H1439.46M863.6 -80.3859L863.6 471.066M721.262 361.451H1439.66M767.6 -80.3859L767.6 471.066M721.462 435.142H1439.86" stroke="url(#paint0_radial_215_1369)" stroke-width="0.25"/>
  <defs>
    <radialGradient id="paint0_radial_215_1369" cx="0" cy="0" r="1" gradientUnits="userSpaceOnUse" gradientTransform="translate(720 471.5) rotate(90) scale(822.815 1072.27)">
      <stop stop-color="#4D4D4D" stop-opacity="0"/>
      <stop offset="1" stop-color="#505050"/>
    </radialGradient>
  </defs>
</svg>